#!OML:ASF F:\VICON\USERDATA\INSTALL\rory3\rory3.ASF
:FULLY-SPECIFIED
:DEGREES
484
root -0.951809 18.6964 10.9623 -131.675 -9.03442 -220.85
lowerback -14.2886 -9.44864 -20.9922
upperback -14.2813 -16.2797 -8.98243
thorax -6.81466 -9.25268 -0.0700648
lowerneck -17.7443 -1.57798 0.248559
upperneck 34.6156 -0.413112 1.79149
head 15.034 1.06244 0.885746
rclavicle 1.51573e-015 -2.78299e-015
rhumerus 60.3227 -52.6242 -17.7548
rradius 47.8031
rwrist -71.0532
rhand -11.2375 11.3343
rfingers 7.12502
rthumb 14.7917 -18.1178
lclavicle 1.51573e-015 -2.78299e-015
lhumerus 46.3519 27.6345 4.4214
lradius 24.3767
lwrist -40.6767
lhand 4.12983 19.281
lfingers 7.12502
lthumb 29.5396 46.9507
rfemur 122.093 -146.403 -173.365
rtibia 33.895
rfoot -12.3283 -36.9756
rtoes 19.9656
lfemur 19.4023 -24.9249 4.50543
ltibia 35.8279
lfoot 35.1314 45.1674
ltoes 30.6499
485
root -0.9845 18.409 11.1033 -129.796 -8.95341 -220.303
lowerback -15.5128 -9.15705 -20.1067
upperback -14.8744 -15.9083 -8.90356
thorax -7.09008 -9.20123 -0.487307
lowerneck -17.3928 -1.65101 -0.0244683
upperneck 33.9827 -0.566698 1.96408
head 14.6621 0.954051 0.955815
rclavicle 5.03919e-014 7.7526e-014
rhumerus 59.8883 -52.5411 -18.0521
rradius 48.2554
rwrist -71.2821
rhand -10.8985 11.9261
rfingers 7.12502
rthumb 15.1183 -17.5017
lclavicle 5.03919e-014 7.7526e-014
lhumerus 45.7683 27.7919 4.3089
lradius 24.2567
lwrist -40.6276
lhand 5.05124 19.7303
lfingers 7.12502
lthumb 30.4188 47.2409
rfemur 117.987 -146.988 -171.33
rtibia 36.063
rfoot -14.8743 -36.4054
rtoes 16.6999
lfemur 18.4401 -23.6158 4.40723
ltibia 35.6163
lfoot 39.2413 42.0511
ltoes 27.3606
486
root -1.022 18.1258 11.2492 -128.433 -9.23751 -219.863
lowerback -16.3472 -8.97849 -19.2458
upperback -15.1413 -15.6156 -8.8472
thorax -7.12816 -9.15373 -0.910559
lowerneck -17.259 -1.61695 -0.178029
upperneck 33.2029 -0.69548 2.25328
head 14.2811 0.86807 1.05021
rclavicle -2.52829e-014 7.55382e-014
rhumerus 59.6488 -52.5634 -18.9157
rradius 48.7768
rwrist -71.5357
rhand -10.1389 12.3194
rfingers 7.12502
rthumb 15.8499 -17.0519
lclavicle -2.52829e-014 7.55382e-014
lhumerus 46.2735 29.3208 6.07583
lradius 23.8557
lwrist -42.2395
lhand 5.94869 19.4667
lfingers 7.12502
lthumb 31.2744 46.8155
rfemur 115.72 -148.5 -171.134
rtibia 38.0496
rfoot -20.6214 -37.7822
rtoes 15.7803
lfemur 17.8135 -22.6358 4.26017
ltibia 35.1172
lfoot 43.5845 37.6899
ltoes 20.1001
487
root -1.0678 17.8475 11.3962 -128.5 -9.99711 -220.368
lowerback -15.4736 -9.04217 -19.2346
upperback -14.9784 -15.7972 -8.9476
thorax -7.37433 -9.17235 -0.891101
lowerneck -17.2933 -1.54358 -0.124554
upperneck 32.7001 -0.709189 2.2891
head 14.0639 0.837119 1.0346
rclavicle 2.15433e-014 -7.59357e-014
rhumerus 59.4831 -52.4855 -19.9835
rradius 49.3093
rwrist -71.0619
rhand -9.40743 12.4685
rfingers 7.12502
rthumb 16.5542 -16.8454
lclavicle 2.15433e-014 -7.59357e-014
lhumerus 46.421 30.8328 7.65266
lradius 23.4842
lwrist -43.9436
lhand 6.53506 19.1324
lfingers 7.12502
lthumb 31.833 46.3717
rfemur 116.404 -149.606 -173.043
rtibia 39.7146
rfoot -27.2491 -36.4461
rtoes 23.2243
lfemur 18.2333 -23.1854 3.24549
ltibia 34.5904
lfoot 46.5034 33.2687
ltoes 11.3158
488
root -1.11798 17.5764 11.5718 -127.931 -10.009 -220.392
lowerback -15.7745 -8.97459 -19.0261
upperback -14.8152 -15.6003 -9.12158
thorax -7.11646 -9.12558 -1.23012
lowerneck -17.7054 0.987504 -0.531345
upperneck 32.0836 -1.69324 3.21167
head 13.9142 -1.13155 0.899387
rclavicle -3.5657e-015 6.67916e-014
rhumerus 59.2676 -52.8532 -21.1467
rradius 49.6082
rwrist -69.9535
rhand -8.54807 12.8303
rfingers 7.12502
rthumb 17.3814 -16.4126
lclavicle -3.5657e-015 6.67916e-014
lhumerus 46.1217 32.2958 8.17496
lradius 23.2058
lwrist -44.9707
lhand 7.09226 19.651
lfingers 7.12502
lthumb 32.3635 46.7833
rfemur 115.735 -150.973 -174.31
rtibia 40.9057
rfoot -33.1546 -37.5142
rtoes 22.597
lfemur 18.1344 -22.9994 1.81291
ltibia 34.1098
lfoot 43.1438 37.5786
ltoes 18.1306
489
root -1.16319 17.3199 11.7518 -126.662 -10.2791 -220.414
lowerback -16.1378 -9.00403 -18.5466
upperback -15.1303 -15.6961 -8.99766
thorax -7.35401 -9.22101 -1.36543
lowerneck -18.1394 1.00589 -0.313334
upperneck 32.0284 -1.48837 2.74048
head 13.9741 -1.04802 0.713534
rclavicle -1.00933e-013 2.5842e-014
rhumerus 58.704 -52.6514 -21.5365
rradius 49.834
rwrist -68.8287
rhand -8.15494 13.319
rfingers 7.12502
rthumb 17.7597 -15.89
lclavicle -1.00933e-013 2.5842e-014
lhumerus 43.7039 31.9682 6.03335
lradius 23.216
lwrist -43.6515
lhand 7.69131 20.4925
lfingers 7.12502
lthumb 32.9335 47.5067
rfemur 114.008 -152.048 -175.13
rtibia 42.4712
rfoot -38.4773 -38.0248
rtoes 24.1151
lfemur 16.8552 -22.2333 1.23533
ltibia 33.3828
lfoot 42.1274 38.1381
ltoes 19.3403
490
root -1.21379 17.0974 11.9224 -125.667 -11.0663 -219.799
lowerback -16.7167 -8.91319 -17.175
upperback -15.3106 -15.4814 -8.69575
thorax -7.37059 -9.17597 -1.7603
lowerneck -18.4715 0.974674 -0.277599
upperneck 31.6789 -1.26297 2.34572
head 13.8844 -0.953754 0.596886
rclavicle 6.78353e-014 6.95746e-014
rhumerus 57.8612 -52.4959 -21.4481
rradius 49.8687
rwrist -67.7911
rhand -8.24241 14.0253
rfingers 7.12502
rthumb 17.6756 -15.1913
lclavicle 6.78353e-014 6.95746e-014
lhumerus 40.6288 30.7726 2.87768
lradius 23.345
lwrist -41.3249
lhand 8.28553 21.7348
lfingers 7.12502
lthumb 33.4985 48.6285
rfemur 112.079 -153.123 -175.022
rtibia 44.3835
rfoot -42.6164 -36.5742
rtoes 29.2385
lfemur 15.4923 -21.2047 1.35454
ltibia 32.9366
lfoot 38.6472 40.3858
ltoes 23.4843
491
root -1.24215 16.9633 12.026 -125.897 -11.8773 -218.65
lowerback -16.4648 -8.53944 -15.5542
upperback -15.1902 -14.8713 -8.32147
thorax -7.43031 -8.83775 -2.02055
lowerneck -18.9729 0.760353 -0.38997
upperneck 31.2669 -1.17766 1.79027
head 13.8075 -0.950569 0.420474
rclavicle 1.27346e-013 -3.97569e-016
rhumerus 57.1595 -52.5606 -21.4447
rradius 49.8445
rwrist -66.8972
rhand -8.20463 14.0385
rfingers 7.12502
rthumb 17.7119 -15.1749
lclavicle 1.27346e-013 -3.97569e-016
lhumerus 38.2898 30.1515 1.10403
lradius 23.3589
lwrist -40.1351
lhand 9.16842 22.6916
lfingers 7.12502
lthumb 34.3372 49.3999
rfemur 109.793 -153.768 -173.682
rtibia 47.2078
rfoot -42.4209 -37.42
rtoes 28.7038
lfemur 15.3733 -20.788 0.596712
ltibia 32.4556
lfoot 33.2897 43.6224
ltoes 28.1783
492
root -1.2585 16.8333 12.2033 -124.986 -12.9024 -217.939
lowerback -16.4596 -8.43033 -14.0513
upperback -15.2608 -14.6075 -7.75583
thorax -7.52797 -8.68067 -2.11787
lowerneck -19.8204 0.428519 -1.06314
upperneck 30.7698 -1.15528 1.61686
head 13.7758 -0.972252 0.485585
rclavicle -1.37161e-014 1.19271e-014
rhumerus 56.5402 -52.8635 -21.5922
rradius 49.9982
rwrist -66.243
rhand -8.0136 13.4513
rfingers 7.12502
rthumb 17.8958 -15.7454
lclavicle -1.37161e-014 1.19271e-014
lhumerus 36.878 30.8866 1.31819
lradius 23.1698
lwrist -40.6126
lhand 9.78455 22.9702
lfingers 7.12502
lthumb 34.922 49.5444
rfemur 105.611 -153.733 -171.796
rtibia 50.4115
rfoot -40.9354 -38.9822
rtoes 26.868
lfemur 13.2283 -20.29 0.489118
ltibia 32.2808
lfoot 34.5841 41.5373
ltoes 24.9893
